# xmcd
#
# Track frame offsets: 
#        150
#        18953
#        35080
#        64410
#        82796
#        101722
#        121577
#        142068
#        164569
#        181672
#
# Disc length: 2664 seconds
#
# Revision: 3
# Processed by: cddbd v1.5.2PL0 Copyright (c) Steve Scherf et al.
# Submitted via: ExactAudioCopy v0.99pb5
#
DISCID=7f0a660a
DTITLE=Φοίβος Δεληβοριάς - Ο καθρέφτης
DYEAR=2003
DGENRE=Έντεχνο
TTITLE0=Mp3
TTITLE1=Δεν ξέρω τι είναι
TTITLE2=Τρένο στην κορυφογραμμή
TTITLE3=Αυτή που περνάει
TTITLE4=Το μέλλον απ' το παρελθόν
TTITLE5=Η υβρεοπομπή
TTITLE6=Η επίσκεψη του Καίσαρα
TTITLE7=Ο καθρέφτης
TTITLE8=Χριστούγεννα
TTITLE9=Η όμορφη πόρτα
EXTD=
EXTT0=
EXTT1=
EXTT2=
EXTT3=
EXTT4=
EXTT5=
EXTT6=
EXTT7=
EXTT8=
EXTT9=
PLAYORDER=
